<svg width="60" height="50" viewBox="0 0 60 50" fill="none" xmlns="http://www.w3.org/2000/svg">
<path d="M22.9455 0.0363541C16.9956 0.493339 11.3987 2.50987 7.25562 5.687C3.51488 8.54497 1.14339 12.092 0.268204 16.1179C0.0564639 17.1189 0.049406 17.1842 0.049406 18.9903C0.049406 20.7457 0.056464 20.8908 0.24703 21.783C0.529349 23.1467 0.882249 24.1695 1.49629 25.4461C2.44912 27.4119 3.39489 28.7176 5.09587 30.4149C6.27456 31.5901 6.96624 32.1631 8.22962 33.019C10.6505 34.6656 13.1702 35.8552 15.9087 36.6604C16.2687 36.7692 16.5651 36.8635 16.5792 36.8708C16.6216 36.907 15.9934 37.85 15.9299 37.85C15.9017 37.85 15.2947 37.6542 14.5889 37.4075C11.5045 36.3412 8.88601 34.9485 6.43689 33.0626C3.83955 31.0678 1.85625 28.6741 0.515234 25.9539L0 24.9021L0.028232 28.9279L0.0564639 32.9538L0.275262 33.933C0.529349 35.0501 0.670509 35.5506 0.988119 36.3412C1.93389 38.7567 3.48665 40.9764 5.65345 42.9856C9.16833 46.2571 14.123 48.5855 19.6283 49.5575C21.8304 49.9492 22.5009 50 25.4864 50C28.4014 50 28.8107 49.971 31.1328 49.5938C33.2855 49.2456 35.6711 48.5783 37.6615 47.7659C38.8966 47.2581 43.1243 46.3151 46.4698 45.7928C51.114 45.0747 56.1181 44.9296 59.386 45.4156L60 45.5099V40.1204V34.7309L59.8236 34.6584C59.7247 34.6221 59.3154 34.5133 58.9201 34.4263C58.2496 34.2739 58.0308 34.2594 55.6593 34.2594C53.4643 34.2594 52.9279 34.2812 51.7069 34.4263C49.8435 34.6511 46.1452 35.2314 45.3264 35.4345C45.1712 35.4708 45.1782 35.4418 45.4605 35.0138C45.6299 34.7599 45.7711 34.5423 45.7711 34.5351C45.7923 34.4988 48.9542 33.991 49.7589 33.8967C50.2811 33.8315 50.7187 33.7734 50.7258 33.7662C50.7329 33.7589 50.7823 33.5703 50.8246 33.3527C50.8881 33.0698 50.9234 31.7496 50.9375 28.9279L50.9658 24.9021L50.5917 25.7C50.1329 26.672 49.4201 27.8616 48.7637 28.7611L48.2767 29.4357H47.5709H46.8721L47.4791 28.6595C49.2577 26.4036 50.3729 23.9446 50.8387 21.239C50.9799 20.3976 50.9587 17.3945 50.8034 16.5458C50.4223 14.4785 49.6389 12.5273 48.4602 10.7211C44.5642 4.76578 37.125 0.834265 28.2743 0.0581169C27.505 -0.00716659 23.7149 -0.0216757 22.9455 0.0363541ZM27.6038 3.41659C29.693 3.92435 31.2599 4.92536 32.1209 6.30357C32.7209 7.26831 32.9538 8.20405 32.8197 9.17604C32.735 9.82888 32.615 10.1771 32.2903 10.7719C31.9162 11.461 31.4292 12.0123 30.787 12.491C29.2624 13.6153 27.5544 14.1448 25.4864 14.1448C22.9738 14.1448 20.8564 13.3179 19.4095 11.7584C18.8307 11.1345 18.3578 10.2714 18.2096 9.56775C18.0755 8.92942 18.1602 7.79784 18.372 7.25381C19.1483 5.30256 20.9552 3.93886 23.4819 3.40208C24.4912 3.18447 24.4983 3.18447 25.7334 3.21349C26.6227 3.23525 27.018 3.27877 27.6038 3.41659ZM13.3255 13.6588C15.09 13.9417 16.9956 14.95 17.9061 16.0743C18.3578 16.6401 18.8096 17.5323 18.9225 18.0909C19.0425 18.6929 18.9789 19.8608 18.7884 20.3976C18.5978 20.9416 17.9697 21.9136 17.5321 22.3343C16.5792 23.2483 15.2241 23.9301 13.6219 24.3001C13.0079 24.4379 12.6903 24.4669 11.6527 24.4669C10.6152 24.4669 10.2976 24.4379 9.68357 24.3001C7.3262 23.756 5.61816 22.5882 4.77826 20.9488C4.44654 20.3033 4.31243 19.7375 4.31243 18.9903C4.31949 18.1924 4.39713 17.8588 4.75709 17.1044C5.27938 16.0018 6.4863 14.9065 7.82026 14.3117C8.80132 13.8765 9.57064 13.6879 11.0881 13.521C11.4763 13.4775 12.6197 13.55 13.3255 13.6588ZM40.9928 13.6588C42.2774 13.8692 43.5619 14.4132 44.6418 15.2039C45.9052 16.1324 46.6745 17.5614 46.6816 18.9903C46.6886 21.5146 44.5501 23.5747 41.1552 24.3291C40.2235 24.5394 38.3249 24.5249 37.3509 24.3001C34.9371 23.7415 33.229 22.5592 32.4032 20.8618C32.0503 20.1364 31.9515 19.6359 31.9939 18.7365C32.0221 18.1707 32.0715 17.9095 32.2197 17.5468C32.7703 16.1686 34.0054 14.9573 35.5511 14.2827C36.4969 13.8692 37.2733 13.6879 38.7554 13.521C39.1436 13.4775 40.287 13.55 40.9928 13.6588ZM26.2628 17.7717C27.4132 18.1416 27.6815 19.3385 26.7569 19.9913C26.164 20.4048 25.2323 20.4701 24.5124 20.1509C23.3972 19.6577 23.362 18.41 24.4559 17.8733C24.9853 17.6121 25.6629 17.5759 26.2628 17.7717ZM27.7238 24.097C30.6246 24.8441 32.5938 26.6793 32.8197 28.8481C32.8479 29.131 32.855 29.3849 32.8338 29.3994C32.7914 29.4429 18.1814 29.4429 18.139 29.3994C18.1179 29.3849 18.1249 29.1093 18.1602 28.8046C18.2096 28.3476 18.2873 28.101 18.5696 27.499C18.866 26.8824 19.0213 26.6575 19.5083 26.1498C20.3976 25.214 21.6398 24.5177 23.0796 24.1405C24.0325 23.8938 24.3924 23.8576 25.7334 23.8866C26.8063 23.9084 27.1168 23.9374 27.7238 24.097ZM26.2204 30.9662C26.5875 31.1041 26.6298 31.1403 26.9051 31.6553C27.1098 32.0398 27.1944 32.2937 27.2015 32.5258L27.2156 32.8595L26.651 33.0553C25.8111 33.3455 25.1476 33.7372 24.5759 34.2739C24.3007 34.5351 24.0536 34.7309 24.0325 34.7092C23.9619 34.6366 22.7338 35.79 22.6068 36.0438C22.5362 36.1817 22.3103 36.5008 22.0986 36.762C20.9411 38.1619 20.3835 39.3008 20.7223 39.5909C20.8564 39.707 21.1881 39.6634 22.4656 39.3733C23.6231 39.1122 24.0819 39.0541 24.216 39.1484C24.3713 39.2572 24.2866 39.3008 23.6302 39.4458C22.9314 39.6054 22.2962 39.8665 22.3315 39.9826C22.3809 40.1422 22.8044 40.1132 23.1784 39.9246C23.5172 39.7577 24.1877 39.5982 25.5923 39.3443C26.1428 39.25 26.9686 39.2645 26.9686 39.3733C26.9686 39.4023 26.7992 39.4531 26.6016 39.4748C25.917 39.5691 25.8958 39.5837 25.9381 39.8375L25.9805 40.0697L24.4489 40.5702C22.9455 41.0562 22.6632 41.1867 22.6632 41.3753C22.6632 41.4624 21.8445 41.6945 21.5128 41.6945C21.421 41.6945 21.2587 41.6292 21.1599 41.5494C21.0611 41.4696 20.9552 41.4043 20.927 41.4043C20.8917 41.4043 20.7082 41.3245 20.5105 41.2302C20.32 41.1287 20.0729 41.0344 19.9671 41.0126C19.8259 40.9764 19.6777 40.795 19.3177 40.2292C19.0707 39.8158 18.8237 39.3878 18.7884 39.279C18.6613 38.9453 18.6966 38.3505 18.8519 38.0314C18.9295 37.8718 18.9931 37.6614 18.9931 37.5526C18.9931 37.4438 19.0425 37.3423 19.0989 37.3132C19.1695 37.2915 19.2048 37.1754 19.2048 37.0086C19.2048 36.7257 19.7765 35.6594 20.1859 35.1661C20.3976 34.9195 20.4047 34.9123 20.5176 35.0573C20.6376 35.2169 20.5952 35.2604 21.0187 34.6294C21.1457 34.448 21.301 34.2957 21.3645 34.2957C21.4563 34.2957 21.4704 34.2449 21.4492 34.0708C21.421 33.8677 21.4704 33.7807 21.9856 33.2439C22.7832 32.4097 24.2019 31.4377 25.2747 30.9807C25.7546 30.7776 25.7476 30.7776 26.2204 30.9662ZM29.5236 31.8584C29.82 32.2792 30.0459 32.7506 30.2506 33.3962C30.4694 34.0781 30.4764 34.6656 30.2788 35.5651C29.9612 37.0303 29.9329 37.6759 30.187 37.6179C30.2435 37.6034 30.787 36.8925 31.401 36.0366C32.1844 34.934 32.5726 34.448 32.735 34.3682C33.0385 34.2232 33.836 33.0045 33.9913 32.4605C34.1254 31.9818 34.2595 31.8729 34.5559 32.0108C34.9653 32.1849 35.1559 32.4895 35.41 33.3527C35.6782 34.2594 35.6923 34.4117 35.5511 34.5786C35.4946 34.6439 35.2547 35.0863 35.0076 35.5651C34.7677 36.0438 34.5206 36.5153 34.4501 36.6169C34.3865 36.7184 34.3089 36.8345 34.2877 36.8853C34.2313 36.9723 34.8594 37.4873 35.0288 37.4873C35.17 37.4873 35.5793 37.0303 36.5745 35.7464C38.9178 32.7289 39.9412 31.8004 41.0775 31.6481L41.4587 31.5973L41.4092 31.7859C41.3457 32.0543 41.4587 32.0253 41.861 31.6771L42.2068 31.3724L42.4609 31.6046C42.6162 31.7424 42.7856 31.8294 42.9197 31.8294C43.202 31.8294 43.2302 31.9237 43.0255 32.1776C42.7079 32.5693 42.8279 32.5911 43.2937 32.2284C43.6255 31.9672 43.9784 31.8875 43.9784 32.076C43.9784 32.1994 42.9832 33.1133 42.7503 33.2076C42.6726 33.2439 42.5173 33.2874 42.4115 33.3092C42.2844 33.3382 41.7339 33.8387 40.8375 34.7382C39.9765 35.6086 39.4259 36.1091 39.3624 36.0874C39.2918 36.0583 39.2566 36.1236 39.2213 36.3195C39.1789 36.5951 38.9742 36.9506 38.5649 37.4511C38.3178 37.7557 38.1837 37.7485 38.3249 37.4438C38.4519 37.1464 38.339 37.1319 38.1132 37.4075C37.8661 37.7122 37.6967 38.0676 37.6967 38.2852C37.6967 38.3723 37.4427 38.764 37.118 39.1774C35.8617 40.7878 35.2758 41.3536 34.9935 41.2375C34.9371 41.2157 34.7818 40.9981 34.6618 40.7588C34.5277 40.4976 34.3865 40.3163 34.316 40.3163C34.1536 40.3163 33.7372 39.6634 33.4337 38.9381C33.2855 38.5971 33.102 38.2127 33.0243 38.0821L32.8761 37.8355L32.7209 38.0096C32.6291 38.0966 32.2056 38.7132 31.768 39.3733C30.7164 40.9546 30.4341 41.3318 30.2929 41.3318C30.2294 41.3318 30.0459 41.2012 29.8977 41.0417C29.7494 40.8821 29.5659 40.7515 29.5024 40.7515C29.1848 40.7515 28.8037 39.7868 28.6272 38.5391C28.4225 37.0956 28.5496 31.5465 28.7896 31.3434C28.9237 31.2274 29.2272 31.4377 29.5236 31.8584Z" fill="#B68F13"/>
</svg>
